<?xml version="1.0" encoding="UTF-8" standalone="no"?>
<!DOCTYPE svg PUBLIC "-//W3C//DTD SVG 1.0//EN" "http://www.w3.org/TR/2001/REC-SVG-20010904/DTD/svg10.dtd">
<!-- Generated by Microsoft Visio 11.0, SVG Export, v1.0 ug902_ug_loop_pipelining_x14277.svg Page-1 -->
<svg xmlns="http://www.w3.org/2000/svg" xmlns:xlink="http://www.w3.org/1999/xlink" xmlns:ev="http://www.w3.org/2001/xml-events"
		xmlns:v="http://schemas.microsoft.com/visio/2003/SVGExtensions/" width="4.97321in" height="2.93307in"
		viewBox="0 0 358.071 211.181" xml:space="preserve" color-interpolation-filters="sRGB" class="st15">
	<v:documentProperties v:langID="1033" v:viewMarkup="false">
		<v:userDefs>
			<v:ud v:nameU="visTLShowProps" v:prompt="" v:val="VT0(0):26"/>
		</v:userDefs>
	</v:documentProperties>

	<style type="text/css">
	<![CDATA[
		.st1 {stroke:#000000;stroke-linecap:round;stroke-linejoin:round;stroke-width:0.75}
		.st2 {fill:none;stroke:#000000;stroke-width:1}
		.st3 {fill:#000000;font-family:David;font-size:0.666664em}
		.st4 {font-size:1em}
		.st5 {fill:#bfbfbf;stroke:none;stroke-width:1}
		.st6 {fill:#7f7f7f;stroke:none;stroke-width:1}
		.st7 {fill:#000000;stroke:none;stroke-width:1}
		.st8 {fill:none;stroke:none;stroke-linecap:round;stroke-linejoin:round;stroke-width:0.75}
		.st9 {fill:#000000;font-family:Arial Unicode MS;font-size:0.666664em}
		.st10 {fill:#000000;font-family:Arial Unicode MS;font-size:0.416656em;font-weight:bold}
		.st11 {marker-end:url(#mrkr13-34);marker-start:url(#mrkr13-32);stroke:#000000;stroke-linecap:butt;stroke-width:0.5}
		.st12 {fill:#000000;fill-opacity:1;stroke:#000000;stroke-opacity:1;stroke-width:0.21739130434783}
		.st13 {fill:#ffffff;font-family:Arial Unicode MS;font-size:0.416656em;font-weight:bold}
		.st14 {fill:#000000;font-family:Arial Unicode MS;font-size:0.416656em}
		.st15 {fill:none;fill-rule:evenodd;font-size:12px;overflow:visible;stroke-linecap:square;stroke-miterlimit:3}
	]]>
	</style>

	<defs id="Markers">
		<g id="lend13">
			<path d="M 3 1 L 0 0 L 3 -1 L 3 1 " style="stroke:none"/>
		</g>
		<marker id="mrkr13-32" class="st12" v:arrowType="13" v:arrowSize="1" v:setback="13.08" refX="13.08" orient="auto"
				markerUnits="strokeWidth" overflow="visible">
			<use xlink:href="#lend13" transform="scale(4.6) "/>
		</marker>
		<marker id="mrkr13-34" class="st12" v:arrowType="13" v:arrowSize="1" v:setback="13.8" refX="-13.8" orient="auto"
				markerUnits="strokeWidth" overflow="visible">
			<use xlink:href="#lend13" transform="scale(-4.6,-4.6) "/>
		</marker>
	</defs>
	<g v:mID="0" v:index="1" v:groupContext="foregroundPage">
		<title>Page-1</title>
		<v:pageProperties v:drawingScale="1" v:pageScale="1" v:drawingUnits="19" v:shadowOffsetX="9" v:shadowOffsetY="-9"/>
		<v:layer v:name="Connector" v:index="0"/>
		<g id="shape6-1" v:mID="6" v:groupContext="shape" transform="translate(7.27148,-95.9653)">
			<title>Sheet.6</title>
			<path d="M0 211.18 L0 200.6 L10.48 200.6 L10.48 211.18 L21.42 211.18 L21.42 200.6 L32.35 200.6 L32.35 211.18 L43.29 211.18
						 L43.29 200.6 L54.22 200.6 L54.22 211.18 L65.16 211.18 L65.16 200.6 L76.1 200.6 L76.1 211.18 L87.03 211.18
						 L87.03 200.6 L97.97 200.6 L97.97 211.18 L108.91 211.18 L108.91 200.6 L119.84 200.6 L119.84 211.18 L130.78
						 211.18 L130.78 200.6 L141.71 200.6 L141.71 211.18 L152.65 211.18 L152.65 200.6 L163.59 200.6 L163.59 211.18
						 L174.52 211.18 L174.55 200.51 L185.46 200.51 L185.46 211.18 L195 211.18" class="st1"/>
		</g>
		<g id="shape16-4" v:mID="16" v:groupContext="shape" transform="translate(104.398,-112.479)">
			<title>Rectangle.16</title>
			<desc>void func(m,n,o) { for (i=2;i&#62;=0;i--) { op_Read; op_Compute; ...</desc>
			<v:userDefs>
				<v:ud v:nameU="visVersion" v:val="VT0(14):26"/>
			</v:userDefs>
			<v:textBlock v:margins="rect(4,4,4,4)" v:verticalAlign="0"/>
			<v:textRect cx="81.5634" cy="162.33" width="163.13" height="97.7023"/>
			<rect x="0" y="113.479" width="163.127" height="97.7023" class="st2"/>
			<text x="4" y="124.68" class="st3" v:langID="1033"><v:paragraph/><v:tabList/>void func(m,n,o) { <v:newlineChar/><tspan
						x="4" dy="1.2em" class="st4">  </tspan><tspan x="4" dy="1.2em" class="st4">  </tspan>for (i=2;i&#62;=0;i--) {<v:newlineChar/><tspan
						x="4" dy="1.2em" class="st4">       </tspan>op_Read;<v:newlineChar/><tspan x="4" dy="1.2em" class="st4">       </tspan>op_Compute;<v:newlineChar/><tspan
						x="4" dy="1.2em" class="st4">       </tspan>op_Write;<v:newlineChar/><v:newlineChar/><tspan x="4"
						dy="2.4em" class="st4">  </tspan>}<v:newlineChar/><tspan x="4" dy="1.2em" class="st4">}</tspan><v:newlineChar/>    </text>		</g>
		<g id="shape17-14" v:mID="17" v:groupContext="shape" transform="translate(210.15,-168.416)">
			<title>Rectangle.17</title>
			<v:userDefs>
				<v:ud v:nameU="visVersion" v:val="VT0(14):26"/>
			</v:userDefs>
			<rect x="0" y="202.513" width="43.1431" height="8.66825" class="st5"/>
		</g>
		<g id="shape18-16" v:mID="18" v:groupContext="shape" transform="translate(210.15,-157.873)">
			<title>Rectangle.18</title>
			<v:userDefs>
				<v:ud v:nameU="visVersion" v:val="VT0(14):26"/>
			</v:userDefs>
			<rect x="0" y="202.513" width="43.1431" height="8.66825" class="st6"/>
		</g>
		<g id="shape19-18" v:mID="19" v:groupContext="shape" transform="translate(210.15,-147.329)">
			<title>Rectangle.19</title>
			<v:userDefs>
				<v:ud v:nameU="visVersion" v:val="VT0(14):26"/>
			</v:userDefs>
			<rect x="0" y="202.513" width="43.1431" height="8.66825" class="st7"/>
		</g>
		<g id="shape33-20" v:mID="33" v:groupContext="shape" transform="translate(240.146,-23.813)">
			<title>Sheet.33</title>
			<desc>4 cycles</desc>
			<v:textBlock v:margins="rect(4,4,4,4)"/>
			<v:textRect cx="29.3278" cy="203.643" width="58.66" height="15.0752"/>
			<rect x="0" y="196.106" width="58.6556" height="15.0752" class="st8"/>
			<text x="14.88" y="206.04" class="st9" v:langID="1033"><v:paragraph v:horizAlign="1"/><v:tabList/>4 cycles</text>		</g>
		<g id="shape7-23" v:mID="7" v:groupContext="shape" transform="translate(7.0875,-65.4515)">
			<title>Rectangle.7</title>
			<desc>RD</desc>
			<v:userDefs>
				<v:ud v:nameU="visVersion" v:val="VT0(14):26"/>
			</v:userDefs>
			<v:textBlock v:margins="rect(4,4,4,4)"/>
			<v:textRect cx="10.4063" cy="206.847" width="20.82" height="8.66825"/>
			<rect x="0" y="202.513" width="20.8125" height="8.66825" class="st5"/>
			<text x="6.79" y="208.35" class="st10" v:langID="1033"><v:paragraph v:horizAlign="1"/><v:tabList/>RD</text>		</g>
		<g id="shape11-26" v:mID="11" v:groupContext="shape" v:layerMember="0" transform="translate(72.9,-77.8969)">
			<title>Standard Arrow.11</title>
			<path d="M-6.54 202.18 L-6.9 202.18 L-58.73 202.18" class="st11"/>
		</g>
		<g id="shape12-35" v:mID="12" v:groupContext="shape" transform="translate(20.679,-72.9625)">
			<title>Sheet.12</title>
			<desc>3 cycles</desc>
			<v:textBlock v:margins="rect(4,4,4,4)"/>
			<v:textRect cx="19.8894" cy="203.643" width="39.78" height="15.0752"/>
			<rect x="0" y="196.106" width="39.7789" height="15.0752" class="st8"/>
			<text x="5.44" y="206.04" class="st9" v:langID="1033"><v:paragraph v:horizAlign="1"/><v:tabList/>3 cycles</text>		</g>
		<g id="shape15-38" v:mID="15" v:groupContext="shape" transform="translate(74.9035,-41.7261)">
			<title>Sheet.15</title>
			<desc>8 cycles</desc>
			<v:textBlock v:margins="rect(4,4,4,4)"/>
			<v:textRect cx="19.8894" cy="203.643" width="39.78" height="15.0752"/>
			<rect x="0" y="196.106" width="39.7789" height="15.0752" class="st8"/>
			<text x="5.44" y="206.04" class="st9" v:langID="1033"><v:paragraph v:horizAlign="1"/><v:tabList/>8 cycles</text>		</g>
		<g id="shape29-41" v:mID="29" v:groupContext="shape" transform="translate(217.622,-72.8018)">
			<title>Sheet.29</title>
			<desc>1 cycle</desc>
			<v:textBlock v:margins="rect(4,4,4,4)"/>
			<v:textRect cx="21.0142" cy="203.643" width="42.03" height="15.0752"/>
			<rect x="0" y="196.106" width="42.0284" height="15.0752" class="st8"/>
			<text x="8.56" y="206.04" class="st9" v:langID="1033"><v:paragraph v:horizAlign="1"/><v:tabList/>1 cycle</text>		</g>
		<g id="shape31-44" v:mID="31" v:groupContext="shape" transform="translate(226.072,-65.4515)">
			<title>Rectangle.31</title>
			<desc>RD</desc>
			<v:userDefs>
				<v:ud v:nameU="visVersion" v:val="VT0(14):26"/>
			</v:userDefs>
			<v:textBlock v:margins="rect(4,4,4,4)"/>
			<v:textRect cx="10.7954" cy="206.847" width="21.6" height="8.66825"/>
			<rect x="0" y="202.513" width="21.5908" height="8.66825" class="st5"/>
			<text x="7.18" y="208.35" class="st10" v:langID="1033"><v:paragraph v:horizAlign="1"/><v:tabList/>RD</text>		</g>
		<g id="shape38-47" v:mID="38" v:groupContext="shape" transform="translate(248.856,-65.4515)">
			<title>Rectangle.38</title>
			<desc>CMP</desc>
			<v:userDefs>
				<v:ud v:nameU="visVersion" v:val="VT0(14):26"/>
			</v:userDefs>
			<v:textBlock v:margins="rect(4,4,4,4)"/>
			<v:textRect cx="10.7954" cy="206.847" width="21.6" height="8.66825"/>
			<rect x="0" y="202.513" width="21.5908" height="8.66825" class="st6"/>
			<text x="5.24" y="208.35" class="st13" v:langID="1033"><v:paragraph v:horizAlign="1"/><v:tabList/>CMP</text>		</g>
		<g id="shape39-50" v:mID="39" v:groupContext="shape" transform="translate(271.639,-65.4515)">
			<title>Rectangle.39</title>
			<desc>WR</desc>
			<v:userDefs>
				<v:ud v:nameU="visVersion" v:val="VT0(14):26"/>
			</v:userDefs>
			<v:textBlock v:margins="rect(4,4,4,4)"/>
			<v:textRect cx="10.7954" cy="206.847" width="21.6" height="8.66825"/>
			<rect x="0" y="202.513" width="21.5908" height="8.66825" class="st7"/>
			<text x="6.63" y="208.35" class="st13" v:langID="1033"><v:paragraph v:horizAlign="1"/><v:tabList/>WR</text>		</g>
		<g id="shape41-53" v:mID="41" v:groupContext="shape" transform="translate(248.856,-54.9112)">
			<title>Rectangle.41</title>
			<desc>RD</desc>
			<v:userDefs>
				<v:ud v:nameU="visVersion" v:val="VT0(14):26"/>
			</v:userDefs>
			<v:textBlock v:margins="rect(4,4,4,4)"/>
			<v:textRect cx="10.7954" cy="206.847" width="21.6" height="8.66825"/>
			<rect x="0" y="202.513" width="21.5908" height="8.66825" class="st5"/>
			<text x="7.18" y="208.35" class="st10" v:langID="1033"><v:paragraph v:horizAlign="1"/><v:tabList/>RD</text>		</g>
		<g id="shape42-56" v:mID="42" v:groupContext="shape" transform="translate(271.639,-54.9112)">
			<title>Rectangle.42</title>
			<desc>CMP</desc>
			<v:userDefs>
				<v:ud v:nameU="visVersion" v:val="VT0(14):26"/>
			</v:userDefs>
			<v:textBlock v:margins="rect(4,4,4,4)"/>
			<v:textRect cx="10.7954" cy="206.847" width="21.6" height="8.66825"/>
			<rect x="0" y="202.513" width="21.5908" height="8.66825" class="st6"/>
			<text x="5.24" y="208.35" class="st13" v:langID="1033"><v:paragraph v:horizAlign="1"/><v:tabList/>CMP</text>		</g>
		<g id="shape43-59" v:mID="43" v:groupContext="shape" transform="translate(294.511,-54.9112)">
			<title>Rectangle.43</title>
			<desc>WR</desc>
			<v:userDefs>
				<v:ud v:nameU="visVersion" v:val="VT0(14):26"/>
			</v:userDefs>
			<v:textBlock v:margins="rect(4,4,4,4)"/>
			<v:textRect cx="10.7954" cy="206.847" width="21.6" height="8.66825"/>
			<rect x="0" y="202.513" width="21.5908" height="8.66825" class="st7"/>
			<text x="6.63" y="208.35" class="st13" v:langID="1033"><v:paragraph v:horizAlign="1"/><v:tabList/>WR</text>		</g>
		<g id="shape44-62" v:mID="44" v:groupContext="shape" transform="translate(271.639,-44.3642)">
			<title>Rectangle.44</title>
			<desc>RD</desc>
			<v:userDefs>
				<v:ud v:nameU="visVersion" v:val="VT0(14):26"/>
			</v:userDefs>
			<v:textBlock v:margins="rect(4,4,4,4)"/>
			<v:textRect cx="10.7954" cy="206.847" width="21.6" height="8.66825"/>
			<rect x="0" y="202.513" width="21.5908" height="8.66825" class="st5"/>
			<text x="7.18" y="208.35" class="st10" v:langID="1033"><v:paragraph v:horizAlign="1"/><v:tabList/>RD</text>		</g>
		<g id="shape45-65" v:mID="45" v:groupContext="shape" transform="translate(294.511,-44.3642)">
			<title>Rectangle.45</title>
			<desc>CMP</desc>
			<v:userDefs>
				<v:ud v:nameU="visVersion" v:val="VT0(14):26"/>
			</v:userDefs>
			<v:textBlock v:margins="rect(4,4,4,4)"/>
			<v:textRect cx="10.7954" cy="206.847" width="21.6" height="8.66825"/>
			<rect x="0" y="202.513" width="21.5908" height="8.66825" class="st6"/>
			<text x="5.24" y="208.35" class="st13" v:langID="1033"><v:paragraph v:horizAlign="1"/><v:tabList/>CMP</text>		</g>
		<g id="shape46-68" v:mID="46" v:groupContext="shape" transform="translate(317.476,-44.3642)">
			<title>Rectangle.46</title>
			<desc>WR</desc>
			<v:userDefs>
				<v:ud v:nameU="visVersion" v:val="VT0(14):26"/>
			</v:userDefs>
			<v:textBlock v:margins="rect(4,4,4,4)"/>
			<v:textRect cx="10.7954" cy="206.847" width="21.6" height="8.66825"/>
			<rect x="0" y="202.513" width="21.5908" height="8.66825" class="st7"/>
			<text x="6.63" y="208.35" class="st13" v:langID="1033"><v:paragraph v:horizAlign="1"/><v:tabList/>WR</text>		</g>
		<g id="shape47-71" v:mID="47" v:groupContext="shape" transform="translate(27.4919,-7.99526)">
			<title>Sheet.47</title>
			<desc>(A) Without Loop Pipelining</desc>
			<v:textBlock v:margins="rect(4,4,4,4)"/>
			<v:textRect cx="80.2755" cy="203.643" width="160.56" height="15.0752"/>
			<rect x="0" y="196.106" width="160.551" height="15.0752" class="st8"/>
			<text x="4" y="206.04" class="st9" v:langID="1033"><v:paragraph/><v:tabList/>(A) Without Loop Pipelining</text>		</g>
		<g id="shape48-74" v:mID="48" v:groupContext="shape" transform="translate(225.148,-7.99526)">
			<title>Sheet.48</title>
			<desc>(B) With Loop Pipelining</desc>
			<v:textBlock v:margins="rect(4,4,4,4)"/>
			<v:textRect cx="61.0353" cy="203.643" width="122.08" height="15.0752"/>
			<rect x="0" y="196.106" width="122.071" height="15.0752" class="st8"/>
			<text x="4" y="206.04" class="st9" v:langID="1033"><v:paragraph/><v:tabList/>(B) With Loop Pipelining</text>		</g>
		<g id="shape34-77" v:mID="34" v:groupContext="shape" transform="translate(272.989,-2.50478)">
			<title>Sheet.34</title>
			<desc>X14277</desc>
			<v:textBlock v:margins="rect(0,0,0,0)" v:verticalAlign="0"/>
			<v:textRect cx="42.1241" cy="205.233" width="84.25" height="11.8953"/>
			<rect x="0" y="199.286" width="84.2482" height="11.8953" class="st8"/>
			<text x="67.01" y="210.09" class="st14" v:langID="1033"><v:paragraph v:horizAlign="2"/><v:tabList/>X14277</text>		</g>
		<g id="shape24-80" v:mID="24" v:groupContext="shape" v:layerMember="0" transform="translate(250.838,-77.8969)">
			<title>Standard Arrow.24</title>
			<path d="M-6.54 202.18 L-6.9 202.18 L-18.88 202.18" class="st11"/>
		</g>
		<g id="shape13-87" v:mID="13" v:groupContext="shape" v:layerMember="0" transform="translate(181.543,-46.2298)">
			<title>Standard Arrow.13</title>
			<path d="M-6.54 202.18 L-6.9 202.18 L-167.37 202.18" class="st11"/>
		</g>
		<g id="shape14-94" v:mID="14" v:groupContext="shape" v:layerMember="0" transform="translate(316.221,-28.6048)">
			<title>Standard Arrow.14</title>
			<path d="M-6.54 202.18 L-6.9 202.18 L-83.52 202.18" class="st11"/>
		</g>
		<g id="shape20-101" v:mID="20" v:groupContext="shape" transform="translate(226.543,-95.9653)">
			<title>Sheet.20</title>
			<path d="M0 211.18 L0 200.6 L10.48 200.6 L10.48 211.18 L21.42 211.18 L21.42 200.6 L32.35 200.6 L32.35 211.18 L43.29 211.18
						 L43.29 200.6 L54.22 200.6 L54.22 211.18 L65.16 211.18 L65.16 200.6 L76.1 200.6 L76.1 211.18 L87.03 211.18
						 L87.03 200.6 L97.97 200.6 L97.97 211.18 L108.91 211.18 L108.91 200.6 L119.84 200.6 L119.84 211.18 L130.78
						 211.18" class="st1"/>
		</g>
		<g id="shape8-104" v:mID="8" v:groupContext="shape" transform="translate(28.9898,-65.4515)">
			<title>Rectangle.8</title>
			<desc>CMP</desc>
			<v:userDefs>
				<v:ud v:nameU="visVersion" v:val="VT0(14):26"/>
			</v:userDefs>
			<v:textBlock v:margins="rect(4,4,4,4)"/>
			<v:textRect cx="10.4063" cy="206.847" width="20.82" height="8.66825"/>
			<rect x="0" y="202.513" width="20.8125" height="8.66825" class="st6"/>
			<text x="4.85" y="208.35" class="st13" v:langID="1033"><v:paragraph v:horizAlign="1"/><v:tabList/>CMP</text>		</g>
		<g id="shape9-107" v:mID="9" v:groupContext="shape" transform="translate(50.8922,-65.4515)">
			<title>Rectangle.9</title>
			<desc>WR</desc>
			<v:userDefs>
				<v:ud v:nameU="visVersion" v:val="VT0(14):26"/>
			</v:userDefs>
			<v:textBlock v:margins="rect(4,4,4,4)"/>
			<v:textRect cx="10.4063" cy="206.847" width="20.82" height="8.66825"/>
			<rect x="0" y="202.513" width="20.8125" height="8.66825" class="st7"/>
			<text x="6.24" y="208.35" class="st13" v:langID="1033"><v:paragraph v:horizAlign="1"/><v:tabList/>WR</text>		</g>
		<g id="shape10-110" v:mID="10" v:groupContext="shape" transform="translate(72.7945,-65.4515)">
			<title>Rectangle.10</title>
			<desc>RD</desc>
			<v:userDefs>
				<v:ud v:nameU="visVersion" v:val="VT0(14):26"/>
			</v:userDefs>
			<v:textBlock v:margins="rect(4,4,4,4)"/>
			<v:textRect cx="10.4063" cy="206.847" width="20.82" height="8.66825"/>
			<rect x="0" y="202.513" width="20.8125" height="8.66825" class="st5"/>
			<text x="6.79" y="208.35" class="st10" v:langID="1033"><v:paragraph v:horizAlign="1"/><v:tabList/>RD</text>		</g>
		<g id="shape21-113" v:mID="21" v:groupContext="shape" transform="translate(94.6969,-65.4515)">
			<title>Rectangle.21</title>
			<desc>CMP</desc>
			<v:userDefs>
				<v:ud v:nameU="visVersion" v:val="VT0(14):26"/>
			</v:userDefs>
			<v:textBlock v:margins="rect(4,4,4,4)"/>
			<v:textRect cx="10.4063" cy="206.847" width="20.82" height="8.66825"/>
			<rect x="0" y="202.513" width="20.8125" height="8.66825" class="st6"/>
			<text x="4.85" y="208.35" class="st13" v:langID="1033"><v:paragraph v:horizAlign="1"/><v:tabList/>CMP</text>		</g>
		<g id="shape22-116" v:mID="22" v:groupContext="shape" transform="translate(116.599,-65.4515)">
			<title>Rectangle.22</title>
			<desc>WR</desc>
			<v:userDefs>
				<v:ud v:nameU="visVersion" v:val="VT0(14):26"/>
			</v:userDefs>
			<v:textBlock v:margins="rect(4,4,4,4)"/>
			<v:textRect cx="10.4063" cy="206.847" width="20.82" height="8.66825"/>
			<rect x="0" y="202.513" width="20.8125" height="8.66825" class="st7"/>
			<text x="6.24" y="208.35" class="st13" v:langID="1033"><v:paragraph v:horizAlign="1"/><v:tabList/>WR</text>		</g>
		<g id="shape23-119" v:mID="23" v:groupContext="shape" transform="translate(138.502,-65.4515)">
			<title>Rectangle.23</title>
			<desc>RD</desc>
			<v:userDefs>
				<v:ud v:nameU="visVersion" v:val="VT0(14):26"/>
			</v:userDefs>
			<v:textBlock v:margins="rect(4,4,4,4)"/>
			<v:textRect cx="10.4063" cy="206.847" width="20.82" height="8.66825"/>
			<rect x="0" y="202.513" width="20.8125" height="8.66825" class="st5"/>
			<text x="6.79" y="208.35" class="st10" v:langID="1033"><v:paragraph v:horizAlign="1"/><v:tabList/>RD</text>		</g>
		<g id="shape25-122" v:mID="25" v:groupContext="shape" transform="translate(160.404,-65.4515)">
			<title>Rectangle.25</title>
			<desc>CMP</desc>
			<v:userDefs>
				<v:ud v:nameU="visVersion" v:val="VT0(14):26"/>
			</v:userDefs>
			<v:textBlock v:margins="rect(4,4,4,4)"/>
			<v:textRect cx="10.4063" cy="206.847" width="20.82" height="8.66825"/>
			<rect x="0" y="202.513" width="20.8125" height="8.66825" class="st6"/>
			<text x="4.85" y="208.35" class="st13" v:langID="1033"><v:paragraph v:horizAlign="1"/><v:tabList/>CMP</text>		</g>
		<g id="shape26-125" v:mID="26" v:groupContext="shape" transform="translate(182.306,-65.4515)">
			<title>Rectangle.26</title>
			<desc>WR</desc>
			<v:userDefs>
				<v:ud v:nameU="visVersion" v:val="VT0(14):26"/>
			</v:userDefs>
			<v:textBlock v:margins="rect(4,4,4,4)"/>
			<v:textRect cx="10.4063" cy="206.847" width="20.82" height="8.66825"/>
			<rect x="0" y="202.513" width="20.8125" height="8.66825" class="st7"/>
			<text x="6.24" y="208.35" class="st13" v:langID="1033"><v:paragraph v:horizAlign="1"/><v:tabList/>WR</text>		</g>
	</g>
</svg>
